<?xml version="1.0" encoding="utf-8"?>
<!-- Generator: Adobe Illustrator 24.3.0, SVG Export Plug-In . SVG Version: 6.00 Build 0)  -->
<svg version="1.1" id="A0531C_spade" xmlns="http://www.w3.org/2000/svg" xmlns:xlink="http://www.w3.org/1999/xlink" x="0px" y="0px"
	 viewBox="0 0 248.3 244.6" style="enable-background:new 0 0 248.3 244.6;" xml:space="preserve">
<style type="text/css">
	.st0{fill:#A05425;}
</style>
<path class="st0" d="M233.2,107.4c16.1,19.6,15.2,39,15.2,39c-1,20.3-16.4,33.3-21.7,37.6c-9.2,7.5-20.3,12.5-32,14.4
	c-13.6,2.1-24.4-0.8-45.8-6.5c-9.7-2.6-17.5-5.2-22.7-7.1c2,9.8,6,19.1,11.6,27.3c17.8,25.7,46.6,31.3,53.6,32.5H56.8
	c12-2.8,23.3-7.8,33.6-14.5c9.3-6.1,22.8-15.1,29.2-32c1.6-4.3,2.7-8.8,3.2-13.4c-5.4,1.9-13.4,4.6-23.3,7.2
	c-21.6,5.7-32.4,8.6-45.8,6.5c-11.7-1.9-22.8-6.8-32-14.4C16.5,179.6,1,166.7,0,146.4c0,0-0.9-19.4,15.2-39c0.8-1,1.6-1.9,1.6-1.9
	c2.7-2.9,5.7-5.3,18.3-17.4c7.3-7,11.1-10.9,20.7-20.5l5.9-5.9c6-6,22.7-22.5,62.5-61.8c39.7,39.3,56.4,55.8,62.5,61.8l5.9,5.9
	c9.6,9.6,13.5,13.4,20.7,20.5c12.6,12.1,15.6,14.5,18.3,17.4C231.5,105.5,232.4,106.5,233.2,107.4z"/>
</svg>
