<?xml version="1.0" encoding="utf-8"?>
<!-- Generator: Adobe Illustrator 24.3.0, SVG Export Plug-In . SVG Version: 6.00 Build 0)  -->
<svg version="1.1" id="instagram_svg" class="about_svg m-3" xmlns:svgjs="http://svgjs.com/svgjs"
	 xmlns="http://www.w3.org/2000/svg" xmlns:xlink="http://www.w3.org/1999/xlink" x="0px" y="0px" viewBox="0 0 256.8 256"
	 style="enable-background:new 0 0 256.8 256;" xml:space="preserve">
<style type="text/css">
	.st0{fill:#A0531C;}
</style>
<g>
	<path class="st0" d="M256.2,75.3c-0.6-13.6-2.8-23-6-31.1c-3.3-8.6-8.3-16.3-14.8-22.7C229,15,221.3,10,212.8,6.8
		c-8.2-3.2-17.5-5.4-31.1-6C168,0.1,163.7,0,128.9,0S89.8,0.1,76.2,0.7c-13.6,0.6-23,2.8-31.1,6C36.5,10,28.8,15,22.4,21.5
		c-6.5,6.4-11.6,14.2-14.8,22.7c-3.2,8.2-5.4,17.5-6,31.1C1,88.9,0.9,93.3,0.9,128s0.2,39.1,0.8,52.8c0.6,13.6,2.8,23,6,31.1
		c3.3,8.6,8.3,16.3,14.8,22.7c6.4,6.5,14.2,11.6,22.7,14.8c8.2,3.2,17.5,5.4,31.1,6c13.7,0.6,18,0.8,52.8,0.8s39.1-0.1,52.8-0.8
		c13.6-0.6,23-2.8,31.1-6c17.2-6.7,30.8-20.3,37.5-37.5c3.1-8.2,5.4-17.5,6-31.1c0.6-13.7,0.8-18,0.8-52.8S256.8,88.9,256.2,75.3z
		 M233.1,179.8c-0.6,12.5-2.7,19.3-4.4,23.8c-4.3,11.2-13.2,20-24.3,24.3c-4.5,1.8-11.3,3.9-23.8,4.4c-13.5,0.6-17.6,0.8-51.7,0.8
		s-38.3-0.1-51.7-0.8c-12.5-0.5-19.3-2.6-23.8-4.4c-5.5-2.1-10.6-5.3-14.7-9.6c-4.3-4.2-7.5-9.2-9.6-14.7
		c-1.8-4.5-3.9-11.3-4.4-23.8c-0.6-13.5-0.8-17.6-0.8-51.7s0.1-38.3,0.8-51.7c0.5-12.5,2.6-19.3,4.4-23.8c2.1-5.6,5.3-10.6,9.6-14.7
		c4.1-4.3,9.2-7.5,14.7-9.6c4.5-1.8,11.3-3.9,23.8-4.4c13.5-0.6,17.6-0.8,51.7-0.8c34.2,0,38.3,0.2,51.7,0.8
		c12.5,0.6,19.3,2.7,23.8,4.4c5.5,2,10.6,5.3,14.7,9.6c4.3,4.2,7.5,9.2,9.6,14.7c1.8,4.5,3.9,11.3,4.4,23.8
		c0.6,13.5,0.8,17.6,0.8,51.7S233.7,166.3,233.1,179.8z"/>
	<path class="st0" d="M128.9,62.3c-36.3,0-65.8,29.5-65.8,65.8s29.5,65.8,65.8,65.8c36.3,0,65.8-29.5,65.8-65.8
		S165.2,62.3,128.9,62.3z M128.9,170.7c-23.6,0-42.7-19.1-42.7-42.7s19.1-42.7,42.7-42.7c23.6,0,42.7,19.1,42.7,42.7
		S152.5,170.7,128.9,170.7z"/>
	<path class="st0" d="M212.6,59.7c0,8.5-6.9,15.4-15.4,15.4c-8.5,0-15.4-6.9-15.4-15.4c0-8.5,6.9-15.4,15.4-15.4
		C205.8,44.3,212.6,51.2,212.6,59.7z"/>
</g>
</svg>
