<svg id="white_spade" data-name="Layer 2" xmlns="http://www.w3.org/2000/svg" viewBox="0 0 800 800"><defs><style>.cls-1{fill:#fafbfb;}</style></defs><path class="cls-1" d="M509,385.16c16.11,19.59,15.17,38.95,15.17,38.95-1,20.3-16.44,33.25-21.68,37.64a67.61,67.61,0,0,1-32,14.37c-13.58,2.11-24.39-.8-45.76-6.49-9.68-2.57-17.49-5.22-22.66-7.09a74.29,74.29,0,0,0,11.63,27.32c17.82,25.68,46.57,31.29,53.65,32.47H332.68a105.19,105.19,0,0,0,33.57-14.54c9.26-6.15,22.76-15.1,29.19-32a53.55,53.55,0,0,0,3.19-13.36c-5.37,1.91-13.41,4.59-23.33,7.2-21.6,5.69-32.41,8.57-45.76,6.49a67.61,67.61,0,0,1-32-14.37c-5.24-4.39-20.71-17.34-21.68-37.64,0,0-.94-19.36,15.17-38.95.8-1,1.64-1.92,1.64-1.92,2.67-2.94,5.69-5.26,18.26-17.41,7.29-7.05,11.09-10.87,20.74-20.46l5.91-5.87c6-6,22.72-22.52,62.46-61.78,39.74,39.26,56.44,55.8,62.46,61.78l5.91,5.87c9.65,9.59,13.45,13.41,20.74,20.46,12.57,12.15,15.59,14.47,18.26,17.41C507.37,383.24,508.21,384.18,509,385.16Z"/></svg>